<svg width="137" height="30" viewBox="0 0 137 30" fill="none" xmlns="http://www.w3.org/2000/svg">
<path d="M9.8345 29.888C9.53583 29.888 9.1945 29.8027 8.8105 29.632C8.44783 29.4827 8.14916 29.2907 7.9145 29.056L7.2105 28.288C6.97583 28.0747 6.78383 27.776 6.6345 27.392C6.48516 27.0293 6.4105 26.6987 6.4105 26.4V7.968C6.4105 7.648 6.51716 7.38133 6.7305 7.168C6.94383 6.95467 7.2105 6.848 7.5305 6.848H15.8825C16.1598 6.848 16.3945 6.95467 16.5865 7.168C16.7785 7.38133 16.8745 7.648 16.8745 7.968V17.312C16.8745 17.6107 16.7892 17.9413 16.6185 18.304C16.4478 18.6667 16.2452 18.9547 16.0105 19.168L15.0505 20.064C14.8158 20.256 14.4958 20.4267 14.0905 20.576C13.7065 20.704 13.3652 20.768 13.0665 20.768H10.5065C10.1865 20.768 9.91983 20.8747 9.7065 21.088C9.49316 21.3013 9.3865 21.568 9.3865 21.888V25.792C9.3865 26.112 9.49316 26.3787 9.7065 26.592C9.91983 26.8053 10.1865 26.912 10.5065 26.912H20.2665C20.5652 26.912 20.8212 27.0187 21.0345 27.232C21.2478 27.4453 21.3545 27.712 21.3545 28.032V28.768C21.3545 29.0667 21.2478 29.3227 21.0345 29.536C20.8212 29.7707 20.5652 29.888 20.2665 29.888H9.8345ZM21.3545 20.096C21.3545 20.416 21.2798 20.768 21.1305 21.152C20.9812 21.536 20.8105 21.856 20.6185 22.112L19.7225 23.04C19.5092 23.296 19.2212 23.5093 18.8585 23.68C18.4958 23.8293 18.1652 23.904 17.8665 23.904H15.9465C15.6478 23.904 15.3812 23.7973 15.1465 23.584C14.9332 23.3707 14.8265 23.1147 14.8265 22.816V22.08C14.8265 21.76 14.9332 21.4933 15.1465 21.28C15.3812 21.0453 15.6478 20.928 15.9465 20.928H17.2585C17.5785 20.928 17.8452 20.8213 18.0585 20.608C18.2718 20.3947 18.3785 20.128 18.3785 19.808V5.952C18.3785 5.65333 18.2718 5.38667 18.0585 5.152C17.8452 4.91733 17.5785 4.8 17.2585 4.8H9.1625C8.8425 4.8 8.50116 4.736 8.1385 4.608C7.77583 4.45867 7.47716 4.26667 7.2425 4.032L6.4425 3.264C6.20783 3.02933 6.01583 2.74133 5.8665 2.4C5.71716 2.05867 5.6425 1.76 5.6425 1.504C5.6425 1.22667 5.74916 0.991999 5.9625 0.799999C6.19716 0.607999 6.46383 0.511999 6.7625 0.511999H7.4665C7.7865 0.511999 8.05316 0.575999 8.2665 0.703999C8.50116 0.831998 8.6185 0.991998 8.6185 1.184C8.6185 1.35467 8.72516 1.504 8.9385 1.632C9.15183 1.76 9.4185 1.824 9.7385 1.824H20.2665C20.5652 1.824 20.8212 1.94133 21.0345 2.176C21.2478 2.38933 21.3545 2.656 21.3545 2.976V20.096ZM0.0104973 28.032C0.0104973 27.712 0.0424973 27.4453 0.106497 27.232C0.191831 27.0187 0.298497 26.912 0.426497 26.912C0.554497 26.912 0.650497 26.8053 0.714497 26.592C0.799831 26.3787 0.842497 26.112 0.842497 25.792V13.76C0.842497 13.44 0.949164 13.1733 1.1625 12.96C1.37583 12.7467 1.63183 12.64 1.9305 12.64H2.6985C2.99716 12.64 3.25316 12.7467 3.4665 12.96C3.67983 13.1733 3.7865 13.44 3.7865 13.76V26.4C3.7865 26.6987 3.71183 27.0293 3.5625 27.392C3.41316 27.776 3.23183 28.064 3.0185 28.256L2.1865 29.088C1.97316 29.3227 1.71716 29.5147 1.4185 29.664C1.11983 29.8133 0.885164 29.888 0.714497 29.888C0.522497 29.888 0.351831 29.7707 0.202497 29.536C0.0744973 29.3227 0.0104973 29.0667 0.0104973 28.768V28.032ZM10.5065 9.76C10.1865 9.76 9.91983 9.87733 9.7065 10.112C9.49316 10.3467 9.3865 10.6133 9.3865 10.912V16.672C9.3865 16.992 9.49316 17.2587 9.7065 17.472C9.91983 17.6853 10.1865 17.792 10.5065 17.792H12.7785C13.0772 17.792 13.3438 17.6853 13.5785 17.472C13.8132 17.2587 13.9305 16.992 13.9305 16.672V10.912C13.9305 10.6133 13.8132 10.3467 13.5785 10.112C13.3438 9.87733 13.0772 9.76 12.7785 9.76H10.5065ZM3.0505 4.032C2.8585 4.26667 2.6025 4.384 2.2825 4.384C1.98383 4.384 1.72783 4.26667 1.5145 4.032L1.0345 3.552C0.799831 3.31733 0.682497 3.05067 0.682497 2.752C0.682497 2.45333 0.799831 2.18667 1.0345 1.952L1.5145 1.44C1.72783 1.20533 1.98383 1.088 2.2825 1.088C2.6025 1.088 2.8585 1.20533 3.0505 1.44L3.6265 1.952C3.83983 2.18667 3.9465 2.45333 3.9465 2.752C3.9465 3.05067 3.83983 3.31733 3.6265 3.552L3.0505 4.032ZM1.0345 9.632C0.799831 9.39733 0.682497 9.13067 0.682497 8.832C0.682497 8.53333 0.799831 8.26667 1.0345 8.032L1.5145 7.552C1.72783 7.33867 1.98383 7.232 2.2825 7.232C2.6025 7.232 2.8585 7.33867 3.0505 7.552L3.6265 8.032C3.83983 8.26667 3.9465 8.53333 3.9465 8.832C3.9465 9.13067 3.83983 9.39733 3.6265 9.632L3.0505 10.144C2.8585 10.3787 2.6025 10.496 2.2825 10.496C1.98383 10.496 1.72783 10.3787 1.5145 10.144L1.0345 9.632ZM48.3832 29.888C48.0846 29.888 47.7432 29.8027 47.3592 29.632C46.9966 29.4827 46.6979 29.2907 46.4632 29.056L45.7592 28.288C45.5246 28.0747 45.3326 27.776 45.1832 27.392C45.0339 27.0293 44.9592 26.6987 44.9592 26.4V7.968C44.9592 7.648 45.0659 7.38133 45.2792 7.168C45.4926 6.95467 45.7592 6.848 46.0792 6.848H54.4312C54.7086 6.848 54.9433 6.95467 55.1353 7.168C55.3273 7.38133 55.4233 7.648 55.4233 7.968V17.312C55.4233 17.6107 55.3379 17.9413 55.1672 18.304C54.9966 18.6667 54.7939 18.9547 54.5592 19.168L53.5993 20.064C53.3646 20.256 53.0446 20.4267 52.6392 20.576C52.2552 20.704 51.9139 20.768 51.6152 20.768H49.0552C48.7352 20.768 48.4686 20.8747 48.2552 21.088C48.0419 21.3013 47.9352 21.568 47.9352 21.888V25.792C47.9352 26.112 48.0419 26.3787 48.2552 26.592C48.4686 26.8053 48.7352 26.912 49.0552 26.912H58.8153C59.1139 26.912 59.3699 27.0187 59.5833 27.232C59.7966 27.4453 59.9032 27.712 59.9032 28.032V28.768C59.9032 29.0667 59.7966 29.3227 59.5833 29.536C59.3699 29.7707 59.1139 29.888 58.8153 29.888H48.3832ZM59.9032 20.096C59.9032 20.416 59.8286 20.768 59.6793 21.152C59.5299 21.536 59.3592 21.856 59.1672 22.112L58.2712 23.04C58.0579 23.296 57.7699 23.5093 57.4072 23.68C57.0446 23.8293 56.7139 23.904 56.4153 23.904H54.4953C54.1966 23.904 53.9299 23.7973 53.6952 23.584C53.4819 23.3707 53.3752 23.1147 53.3752 22.816V22.08C53.3752 21.76 53.4819 21.4933 53.6952 21.28C53.9299 21.0453 54.1966 20.928 54.4953 20.928H55.8072C56.1273 20.928 56.3939 20.8213 56.6073 20.608C56.8206 20.3947 56.9272 20.128 56.9272 19.808V5.952C56.9272 5.65333 56.8206 5.38667 56.6073 5.152C56.3939 4.91733 56.1273 4.8 55.8072 4.8H47.7112C47.3912 4.8 47.0499 4.736 46.6872 4.608C46.3246 4.45867 46.0259 4.26667 45.7912 4.032L44.9912 3.264C44.7566 3.02933 44.5646 2.74133 44.4152 2.4C44.2659 2.05867 44.1912 1.76 44.1912 1.504C44.1912 1.22667 44.2979 0.991999 44.5112 0.799999C44.7459 0.607999 45.0126 0.511999 45.3112 0.511999H46.0152C46.3352 0.511999 46.6019 0.575999 46.8152 0.703999C47.0499 0.831998 47.1672 0.991998 47.1672 1.184C47.1672 1.35467 47.2739 1.504 47.4872 1.632C47.7006 1.76 47.9672 1.824 48.2872 1.824H58.8153C59.1139 1.824 59.3699 1.94133 59.5833 2.176C59.7966 2.38933 59.9032 2.656 59.9032 2.976V20.096ZM38.5592 28.032C38.5592 27.712 38.5912 27.4453 38.6552 27.232C38.7406 27.0187 38.8472 26.912 38.9752 26.912C39.1032 26.912 39.1992 26.8053 39.2632 26.592C39.3486 26.3787 39.3912 26.112 39.3912 25.792V13.76C39.3912 13.44 39.4979 13.1733 39.7112 12.96C39.9246 12.7467 40.1806 12.64 40.4792 12.64H41.2472C41.5459 12.64 41.8019 12.7467 42.0152 12.96C42.2286 13.1733 42.3352 13.44 42.3352 13.76V26.4C42.3352 26.6987 42.2606 27.0293 42.1112 27.392C41.9619 27.776 41.7806 28.064 41.5672 28.256L40.7352 29.088C40.5219 29.3227 40.2659 29.5147 39.9672 29.664C39.6686 29.8133 39.4339 29.888 39.2632 29.888C39.0712 29.888 38.9006 29.7707 38.7512 29.536C38.6232 29.3227 38.5592 29.0667 38.5592 28.768V28.032ZM49.0552 9.76C48.7352 9.76 48.4686 9.87733 48.2552 10.112C48.0419 10.3467 47.9352 10.6133 47.9352 10.912V16.672C47.9352 16.992 48.0419 17.2587 48.2552 17.472C48.4686 17.6853 48.7352 17.792 49.0552 17.792H51.3272C51.6259 17.792 51.8926 17.6853 52.1272 17.472C52.3619 17.2587 52.4792 16.992 52.4792 16.672V10.912C52.4792 10.6133 52.3619 10.3467 52.1272 10.112C51.8926 9.87733 51.6259 9.76 51.3272 9.76H49.0552ZM41.5992 4.032C41.4072 4.26667 41.1512 4.384 40.8312 4.384C40.5326 4.384 40.2766 4.26667 40.0632 4.032L39.5832 3.552C39.3486 3.31733 39.2312 3.05067 39.2312 2.752C39.2312 2.45333 39.3486 2.18667 39.5832 1.952L40.0632 1.44C40.2766 1.20533 40.5326 1.088 40.8312 1.088C41.1512 1.088 41.4072 1.20533 41.5992 1.44L42.1752 1.952C42.3886 2.18667 42.4952 2.45333 42.4952 2.752C42.4952 3.05067 42.3886 3.31733 42.1752 3.552L41.5992 4.032ZM39.5832 9.632C39.3486 9.39733 39.2312 9.13067 39.2312 8.832C39.2312 8.53333 39.3486 8.26667 39.5832 8.032L40.0632 7.552C40.2766 7.33867 40.5326 7.232 40.8312 7.232C41.1512 7.232 41.4072 7.33867 41.5992 7.552L42.1752 8.032C42.3886 8.26667 42.4952 8.53333 42.4952 8.832C42.4952 9.13067 42.3886 9.39733 42.1752 9.632L41.5992 10.144C41.4072 10.3787 41.1512 10.496 40.8312 10.496C40.5326 10.496 40.2766 10.3787 40.0632 10.144L39.5832 9.632ZM91.092 13.376C90.7933 13.376 90.5373 13.4933 90.324 13.728C90.132 13.9413 90.036 14.1973 90.036 14.496V15.648C90.036 15.9467 90.132 16.2133 90.324 16.448C90.5373 16.6827 90.7933 16.8 91.092 16.8H97.14C97.4387 16.8 97.6947 16.9067 97.908 17.12C98.1427 17.312 98.26 17.5573 98.26 17.856V18.592C98.26 18.8907 98.1427 19.1573 97.908 19.392C97.6947 19.6267 97.4387 19.744 97.14 19.744H91.092C90.7933 19.744 90.5373 19.84 90.324 20.032C90.132 20.2027 90.036 20.4373 90.036 20.736C90.036 21.0133 90.132 21.2587 90.324 21.472C90.5373 21.664 90.7933 21.76 91.092 21.76H97.14C97.4387 21.76 97.6947 21.8773 97.908 22.112C98.1427 22.3253 98.26 22.5813 98.26 22.88V23.552C98.26 23.872 98.1427 24.1387 97.908 24.352C97.6947 24.5867 97.4387 24.704 97.14 24.704H91.092C90.7933 24.704 90.5373 24.8107 90.324 25.024C90.132 25.2373 90.036 25.504 90.036 25.824C90.036 26.144 90.132 26.4107 90.324 26.624C90.5373 26.8373 90.7933 26.944 91.092 26.944H97.14C97.4387 26.944 97.6947 27.0507 97.908 27.264C98.1427 27.4773 98.26 27.744 98.26 28.064V28.768C98.26 29.0667 98.1427 29.3227 97.908 29.536C97.6947 29.7707 97.4387 29.888 97.14 29.888H78.196C77.8973 29.888 77.6413 29.7707 77.428 29.536C77.2147 29.3227 77.108 29.0667 77.108 28.768V28.064C77.108 27.744 77.2147 27.4773 77.428 27.264C77.6413 27.0507 77.8973 26.944 78.196 26.944H85.972C86.2707 26.944 86.5267 26.8373 86.74 26.624C86.9747 26.4107 87.092 26.144 87.092 25.824C87.092 25.504 86.9747 25.2373 86.74 25.024C86.5267 24.8107 86.2707 24.704 85.972 24.704H78.196C77.8973 24.704 77.6413 24.5867 77.428 24.352C77.2147 24.1387 77.108 23.872 77.108 23.552V22.88C77.108 22.5813 77.2147 22.3253 77.428 22.112C77.6413 21.8773 77.8973 21.76 78.196 21.76H85.972C86.2707 21.76 86.5267 21.664 86.74 21.472C86.9747 21.2587 87.092 21.0133 87.092 20.736C87.092 20.4373 86.9747 20.2027 86.74 20.032C86.5267 19.84 86.2707 19.744 85.972 19.744H80.532C80.2333 19.744 79.892 19.6693 79.508 19.52C79.124 19.3707 78.8253 19.1787 78.612 18.944L77.94 18.336C77.7053 18.1653 77.5027 17.8987 77.332 17.536C77.1827 17.152 77.108 16.8107 77.108 16.512V15.808C77.108 15.5093 77.2147 15.2533 77.428 15.04C77.6413 14.8053 77.8973 14.688 78.196 14.688H78.932C79.252 14.688 79.5187 14.7947 79.732 15.008C79.9453 15.2 80.052 15.4347 80.052 15.712C80.052 16.0107 80.1587 16.2667 80.372 16.48C80.5853 16.6933 80.8413 16.8 81.14 16.8H85.972C86.2707 16.8 86.5267 16.6827 86.74 16.448C86.9747 16.2133 87.092 15.9467 87.092 15.648V14.496C87.092 14.1973 86.9747 13.9413 86.74 13.728C86.5267 13.4933 86.2707 13.376 85.972 13.376H78.196C77.8973 13.376 77.6413 13.2693 77.428 13.056C77.2147 12.8213 77.108 12.5547 77.108 12.256V1.6C77.108 1.30133 77.2147 1.04533 77.428 0.831999C77.6413 0.618666 77.8973 0.511999 78.196 0.511999H97.14C97.4387 0.511999 97.6947 0.618666 97.908 0.831999C98.1427 1.04533 98.26 1.30133 98.26 1.6V9.952C98.26 10.2293 98.1853 10.56 98.036 10.944C97.8867 11.3067 97.6947 11.5947 97.46 11.808L96.692 12.576C96.4787 12.8107 96.18 13.0027 95.796 13.152C95.4333 13.3013 95.1027 13.376 94.804 13.376H91.092ZM81.14 3.424C80.8413 3.424 80.5853 3.53067 80.372 3.744C80.1587 3.95733 80.052 4.21333 80.052 4.512C80.052 4.81067 80.1587 5.06667 80.372 5.28C80.5853 5.49333 80.8413 5.6 81.14 5.6H94.196C94.516 5.6 94.7827 5.49333 94.996 5.28C95.2093 5.06667 95.316 4.81067 95.316 4.512C95.316 4.21333 95.2093 3.95733 94.996 3.744C94.7827 3.53067 94.516 3.424 94.196 3.424H81.14ZM80.372 8.8C80.1587 8.992 80.052 9.216 80.052 9.472C80.052 9.728 80.1587 9.952 80.372 10.144C80.5853 10.336 80.8413 10.432 81.14 10.432H94.196C94.516 10.432 94.7827 10.336 94.996 10.144C95.2093 9.952 95.316 9.728 95.316 9.472C95.316 9.216 95.2093 8.992 94.996 8.8C94.7827 8.608 94.516 8.512 94.196 8.512H81.14C80.8413 8.512 80.5853 8.608 80.372 8.8ZM121.385 3.488C121.107 3.488 120.883 3.59467 120.713 3.808C120.542 4.02133 120.457 4.288 120.457 4.608V11.648C120.457 11.968 120.542 12.2347 120.713 12.448C120.883 12.6613 121.107 12.768 121.385 12.768C121.619 12.768 121.822 12.8853 121.993 13.12C122.163 13.3333 122.249 13.5893 122.249 13.888V14.656C122.249 14.9547 122.163 15.2107 121.993 15.424C121.822 15.6373 121.619 15.744 121.385 15.744C121.107 15.744 120.883 15.8507 120.713 16.064C120.542 16.2773 120.457 16.5333 120.457 16.832V25.792C120.457 26.112 120.542 26.3787 120.713 26.592C120.883 26.8053 121.107 26.912 121.385 26.912C121.619 26.912 121.822 27.0187 121.993 27.232C122.163 27.4453 122.249 27.712 122.249 28.032V28.768C122.249 29.0667 122.142 29.3227 121.929 29.536C121.715 29.7707 121.449 29.888 121.129 29.888H116.745C116.446 29.888 116.19 29.7707 115.977 29.536C115.763 29.3227 115.657 29.0667 115.657 28.768V28.032C115.657 27.712 115.742 27.4453 115.913 27.232C116.105 27.0187 116.318 26.912 116.553 26.912C116.809 26.912 117.022 26.8053 117.193 26.592C117.385 26.3787 117.481 26.112 117.481 25.792V16.832C117.481 16.5333 117.385 16.2773 117.193 16.064C117.022 15.8507 116.809 15.744 116.553 15.744C116.318 15.744 116.105 15.6373 115.913 15.424C115.742 15.2107 115.657 14.9547 115.657 14.656V13.888C115.657 13.5893 115.742 13.3333 115.913 13.12C116.105 12.8853 116.318 12.768 116.553 12.768C116.809 12.768 117.022 12.6613 117.193 12.448C117.385 12.2347 117.481 11.968 117.481 11.648V4.608C117.481 4.288 117.385 4.02133 117.193 3.808C117.022 3.59467 116.809 3.488 116.553 3.488C116.318 3.488 116.105 3.38133 115.913 3.168C115.742 2.95467 115.657 2.69867 115.657 2.4V1.632C115.657 1.33333 115.763 1.07733 115.977 0.863998C116.19 0.629332 116.446 0.511999 116.745 0.511999H121.129C121.449 0.511999 121.715 0.629332 121.929 0.863998C122.142 1.07733 122.249 1.33333 122.249 1.632V2.4C122.249 2.69867 122.163 2.95467 121.993 3.168C121.822 3.38133 121.619 3.488 121.385 3.488ZM123.241 28.032C123.241 27.712 123.294 27.4453 123.401 27.232C123.507 27.0187 123.646 26.912 123.817 26.912C123.987 26.912 124.126 26.8053 124.233 26.592C124.361 26.3787 124.425 26.112 124.425 25.792V18.08C124.425 17.76 124.531 17.4933 124.745 17.28C124.958 17.0667 125.225 16.96 125.545 16.96H125.993C126.313 16.96 126.579 17.0667 126.793 17.28C127.006 17.4933 127.113 17.76 127.113 18.08V26.432C127.113 26.7307 127.038 27.072 126.889 27.456C126.761 27.84 126.579 28.1493 126.345 28.384L125.769 29.024C125.555 29.2587 125.278 29.4613 124.937 29.632C124.617 29.8027 124.339 29.888 124.105 29.888C123.87 29.888 123.667 29.7707 123.497 29.536C123.326 29.3227 123.241 29.0667 123.241 28.768V28.032ZM136.969 11.936C136.969 12.256 136.894 12.608 136.745 12.992C136.617 13.376 136.457 13.6853 136.265 13.92L135.657 14.56C135.443 14.7947 135.155 14.9973 134.793 15.168C134.451 15.3173 134.121 15.392 133.801 15.392H133.769C133.47 15.392 133.214 15.2853 133.001 15.072C132.787 14.8587 132.681 14.6027 132.681 14.304V13.568C132.681 13.2907 132.755 13.0453 132.905 12.832C133.054 12.5973 133.246 12.48 133.481 12.48C133.715 12.48 133.907 12.3733 134.057 12.16C134.227 11.9467 134.313 11.6907 134.313 11.392V9.536C134.313 9.23733 134.419 8.98133 134.633 8.768C134.867 8.55467 135.134 8.448 135.433 8.448H135.849C136.169 8.448 136.435 8.55467 136.649 8.768C136.862 8.98133 136.969 9.23733 136.969 9.536V11.936ZM136.969 2.944C136.969 3.264 136.894 3.60533 136.745 3.968C136.595 4.33067 136.403 4.62933 136.169 4.864L135.369 5.664C135.134 5.87733 134.825 6.05867 134.441 6.208C134.078 6.35733 133.747 6.432 133.449 6.432H132.713C132.414 6.432 132.147 6.53867 131.913 6.752C131.699 6.96533 131.593 7.232 131.593 7.552V28.768C131.593 29.0667 131.475 29.3227 131.241 29.536C131.027 29.7707 130.771 29.888 130.473 29.888H129.769C129.449 29.888 129.182 29.7707 128.969 29.536C128.755 29.3227 128.649 29.0667 128.649 28.768V7.552C128.649 7.232 128.531 6.96533 128.297 6.752C128.083 6.53867 127.827 6.432 127.529 6.432H124.137C123.838 6.432 123.582 6.32533 123.369 6.112C123.155 5.89867 123.049 5.64267 123.049 5.344V4.576C123.049 4.27733 123.155 4.02133 123.369 3.808C123.582 3.57333 123.838 3.456 124.137 3.456H127.529C127.827 3.456 128.083 3.34933 128.297 3.136C128.531 2.92267 128.649 2.656 128.649 2.336V1.6C128.649 1.30133 128.755 1.04533 128.969 0.831999C129.182 0.618666 129.449 0.511999 129.769 0.511999H130.473C130.771 0.511999 131.027 0.618666 131.241 0.831999C131.475 1.04533 131.593 1.30133 131.593 1.6V2.336C131.593 2.656 131.699 2.92267 131.913 3.136C132.147 3.34933 132.414 3.456 132.713 3.456H133.161C133.459 3.456 133.726 3.36 133.961 3.168C134.195 2.976 134.313 2.73067 134.313 2.432C134.313 2.13333 134.419 1.888 134.633 1.696C134.846 1.48267 135.102 1.376 135.401 1.376H135.849C136.169 1.376 136.435 1.48267 136.649 1.696C136.862 1.90933 136.969 2.176 136.969 2.496V2.944ZM136.969 28.768C136.969 29.0667 136.883 29.3227 136.713 29.536C136.542 29.7707 136.339 29.888 136.105 29.888C135.849 29.888 135.561 29.8027 135.241 29.632C134.921 29.4613 134.665 29.2587 134.473 29.024L133.865 28.384C133.651 28.1493 133.47 27.84 133.321 27.456C133.193 27.072 133.129 26.7307 133.129 26.432V17.76C133.129 17.4613 133.235 17.2053 133.449 16.992C133.683 16.7787 133.961 16.672 134.281 16.672H134.665C134.985 16.672 135.251 16.7787 135.465 16.992C135.678 17.2053 135.785 17.4613 135.785 17.76V25.792C135.785 26.112 135.838 26.3787 135.945 26.592C136.073 26.8053 136.222 26.912 136.393 26.912C136.563 26.912 136.702 27.0187 136.809 27.232C136.915 27.4453 136.969 27.712 136.969 28.032V28.768ZM124.873 8.448C125.193 8.448 125.459 8.55467 125.673 8.768C125.907 8.98133 126.025 9.23733 126.025 9.536V11.392C126.025 11.6907 126.099 11.9467 126.249 12.16C126.419 12.3733 126.622 12.48 126.857 12.48C127.091 12.48 127.283 12.5973 127.433 12.832C127.603 13.0453 127.689 13.2907 127.689 13.568V14.304C127.689 14.6027 127.582 14.8587 127.369 15.072C127.155 15.2853 126.899 15.392 126.601 15.392H126.537C126.238 15.392 125.907 15.3173 125.545 15.168C125.203 14.9973 124.915 14.7947 124.681 14.56L124.073 13.92C123.881 13.6853 123.71 13.376 123.561 12.992C123.433 12.608 123.369 12.256 123.369 11.936V9.536C123.369 9.23733 123.475 8.98133 123.689 8.768C123.902 8.55467 124.169 8.448 124.489 8.448H124.873Z" fill="#212130"/>
</svg>
